<svg version="1.1" id="Layer_1" xmlns="http://www.w3.org/2000/svg" xmlns:xlink="http://www.w3.org/1999/xlink" x="0px" y="0px"
	 width="100%" viewBox="0 0 1920 1080" enable-background="new 0 0 1920 1080" xml:space="preserve">
<path fill="#000000" opacity="1.000000" stroke="none" 
	d="
M1521.000000,1081.000000 
	C1014.000061,1081.000000 507.500183,1081.000000 1.000204,1081.000000 
	C1.000136,721.000183 1.000136,361.000305 1.000068,1.000349 
	C640.999695,1.000232 1280.999390,1.000232 1920.999268,1.000116 
	C1920.999512,360.999664 1920.999512,720.999329 1920.999756,1080.999512 
	C1787.833374,1081.000000 1654.666626,1081.000000 1521.000000,1081.000000 
M1079.640503,506.891327 
	C1080.225342,493.243652 1080.810059,479.595947 1081.860962,465.168549 
	C1081.891357,462.168060 1081.921875,459.167542 1082.762085,455.756561 
	C1082.846558,448.645721 1082.961426,441.535065 1083.006348,434.423981 
	C1083.047119,427.955078 1083.013550,427.954865 1075.479126,427.938904 
	C1065.564575,426.297028 1055.665894,424.551758 1045.732056,423.036316 
	C1028.717896,420.440765 1012.703186,414.561523 997.032593,407.830017 
	C986.417236,403.269989 976.350647,397.443848 965.817017,392.673370 
	C963.386047,391.572418 959.643188,391.545380 957.198792,392.613678 
	C946.872314,397.126801 936.865845,402.364502 926.636536,407.109161 
	C903.469543,417.854706 878.839417,423.288879 853.738281,427.043121 
	C849.352661,427.699066 845.091492,429.187347 839.947083,430.115662 
	C839.638367,430.404724 839.051758,430.703094 839.061096,430.981506 
	C839.415955,441.552521 839.822388,452.121857 840.263550,462.689667 
	C840.269226,462.825134 840.811523,462.938202 841.024536,463.988464 
	C841.354736,476.307587 841.033325,488.688629 842.197144,500.928497 
	C843.377075,513.337341 845.590576,525.696533 848.118774,537.918701 
	C853.577515,564.308655 862.702820,589.467712 877.125916,612.283447 
	C888.761230,630.689331 901.791382,648.019958 918.614319,662.430237 
	C929.841187,672.046997 941.118713,681.393127 953.679443,689.168030 
	C957.558411,691.569153 961.082947,692.619995 965.854919,690.188049 
	C982.291443,681.811401 995.757141,669.622070 1009.065125,657.290771 
	C1015.664856,651.175415 1021.904175,644.420776 1027.106201,637.102112 
	C1036.513916,623.866394 1046.001709,610.515808 1053.645264,596.243469 
	C1062.284424,580.112549 1068.864502,562.847595 1072.561890,544.783691 
	C1075.098633,532.389893 1076.762939,519.817505 1079.640503,506.891327 
z"/>
<path fill="#52B769" opacity="1.000000" stroke="none" 
	d="
M840.772888,430.291229 
	C845.091492,429.187347 849.352661,427.699066 853.738281,427.043121 
	C878.839417,423.288879 903.469543,417.854706 926.636536,407.109161 
	C936.865845,402.364502 946.872314,397.126801 957.198792,392.613678 
	C959.643188,391.545380 963.386047,391.572418 965.817017,392.673370 
	C976.350647,397.443848 986.417236,403.269989 997.032593,407.830017 
	C1012.703186,414.561523 1028.717896,420.440765 1045.732056,423.036316 
	C1055.665894,424.551758 1065.564575,426.297028 1076.053223,427.907288 
	C1081.887939,429.079315 1082.523560,432.716156 1081.991089,437.355469 
	C1081.580322,440.935547 1081.785522,444.590454 1081.784424,448.212097 
	C1081.783569,450.863708 1081.892334,453.515411 1081.952271,456.167053 
	C1081.921875,459.167542 1081.891357,462.168060 1082.243164,465.483063 
	C1084.265015,469.415955 1085.576538,472.971497 1082.284180,476.499054 
	C1081.339478,477.511230 1080.289185,478.892639 1080.205200,480.165314 
	C1079.609009,489.209717 1079.251099,498.269806 1078.817139,507.324921 
	C1076.762939,519.817505 1075.098633,532.389893 1072.561890,544.783691 
	C1068.864502,562.847595 1062.284424,580.112549 1053.645264,596.243469 
	C1046.001709,610.515808 1036.513916,623.866394 1027.106201,637.102112 
	C1021.904175,644.420776 1015.664856,651.175415 1009.065125,657.290771 
	C995.757141,669.622070 982.291443,681.811401 965.854919,690.188049 
	C961.082947,692.619995 957.558411,691.569153 953.679443,689.168030 
	C941.118713,681.393127 929.841187,672.046997 918.614319,662.430237 
	C901.791382,648.019958 888.761230,630.689331 877.125916,612.283447 
	C862.702820,589.467712 853.577515,564.308655 848.118774,537.918701 
	C845.590576,525.696533 843.377075,513.337341 842.197144,500.928497 
	C841.033325,488.688629 841.354736,476.307587 841.035645,463.052490 
	C840.955505,451.508118 840.864197,440.899658 840.772888,430.291229 
M1058.730347,477.167023 
	C1057.509888,478.792480 1056.289429,480.417938 1054.422485,482.904358 
	C1058.791748,481.826569 1062.230713,480.978302 1065.911499,480.070312 
	C1064.829102,478.847107 1063.591675,477.448639 1062.635376,476.367889 
	C1060.802368,476.576172 1059.289551,476.748047 1058.043335,476.204224 
	C1060.108765,473.028778 1059.462280,470.338226 1056.025635,468.984589 
	C1052.820435,467.722076 1050.309692,469.649384 1049.426025,472.537018 
	C1048.331299,476.114655 1050.345215,478.222412 1054.509766,479.227936 
	C1053.328247,477.100891 1052.479980,475.573914 1051.089355,473.070526 
	C1054.111084,474.754028 1055.988525,475.800049 1058.730347,477.167023 
M897.411194,454.173981 
	C902.735291,454.738678 903.480835,454.391846 904.984558,450.475342 
	C903.279358,451.015259 901.674133,451.523499 900.068970,452.031738 
	C899.930847,451.713257 899.792725,451.394775 899.654602,451.076294 
	C901.129089,449.916656 902.603577,448.757019 904.164856,447.529175 
	C902.511658,444.613525 900.479553,443.302612 897.552856,445.082825 
	C894.467041,446.959900 894.687927,449.547272 896.314453,452.368835 
	C896.754761,453.132690 896.802002,454.123169 896.365967,455.026489 
	C892.383728,455.524048 891.009888,453.434784 892.466492,449.022491 
	C890.902283,448.918701 889.352478,448.815857 887.675842,448.704590 
	C885.772949,452.763000 889.789612,454.295380 891.221008,456.817810 
	C891.723206,457.702759 893.791443,458.682007 894.366821,458.333618 
	C895.491821,457.652527 896.069641,456.067596 897.411194,454.173981 
M879.800354,460.801514 
	C878.572754,460.466248 877.345215,460.131012 875.163513,459.535187 
	C876.979065,462.864014 878.246948,465.188660 879.514832,467.513306 
	C879.034485,467.861389 878.554138,468.209442 878.073792,468.557526 
	C876.042236,466.967133 874.010620,465.376709 872.576782,464.254242 
	C869.679688,466.958435 867.289246,469.189728 864.688904,471.616913 
	C867.247803,473.999573 869.460266,476.059662 871.672729,478.119751 
	C872.097290,477.894897 872.521912,477.670044 872.946472,477.445190 
	C872.660278,473.864777 866.710876,470.998352 870.821716,466.863617 
	C877.823975,471.830688 877.823975,471.830688 882.977661,466.541107 
	C881.921265,464.273804 880.922119,462.129364 880.625000,459.722198 
	C882.679688,460.000641 884.734375,460.279083 886.789001,460.557495 
	C887.202515,460.963379 887.615967,461.369263 888.029480,461.775116 
	C886.469177,462.212677 884.908936,462.650238 883.348633,463.087799 
	C884.029541,463.770966 884.710449,464.454132 885.391357,465.137299 
	C886.919800,463.491913 888.448242,461.846497 889.976685,460.201050 
	C888.308716,458.904694 886.640686,457.608307 884.665710,456.073334 
	C884.619202,456.160645 885.122925,455.214233 885.883728,453.784912 
	C881.264893,454.125671 880.103149,456.631165 879.800354,460.801514 
M1040.713013,464.202667 
	C1039.146118,469.020599 1041.926025,467.960205 1044.284302,466.852875 
	C1044.834106,468.944855 1045.312134,470.763611 1045.790161,472.582397 
	C1046.795288,468.657104 1047.673218,465.442352 1052.335449,464.411804 
	C1050.476807,464.135040 1048.618164,463.858276 1046.747437,463.579712 
	C1048.098267,461.367249 1049.232056,459.510284 1050.365845,457.653351 
	C1049.645020,457.051819 1048.924072,456.450317 1048.203125,455.848816 
	C1046.570679,458.031250 1045.079590,460.344116 1043.240723,462.335999 
	C1042.437744,463.205688 1040.922485,463.417542 1039.325439,463.357178 
	C1038.561279,462.114258 1037.797241,460.871338 1037.033203,459.628448 
	C1039.132446,459.006348 1041.231689,458.384277 1043.188721,457.804321 
	C1041.309692,454.489685 1040.840088,454.328339 1035.000366,455.712372 
	C1035.000366,454.852051 1035.324219,453.810944 1034.942261,453.327332 
	C1033.558105,451.574890 1031.836060,448.616913 1030.430786,448.718994 
	C1028.589844,448.852722 1026.023804,451.198639 1025.483521,453.084137 
	C1025.072388,454.518982 1027.195435,456.826141 1028.505859,458.498444 
	C1028.807861,458.883850 1030.462524,458.421631 1031.374634,458.052704 
	C1032.172363,457.730072 1032.801147,456.990295 1033.504639,456.434784 
	C1033.650757,457.427521 1033.935913,458.422668 1033.918945,459.412628 
	C1033.844971,463.705719 1035.942017,465.312073 1040.713013,464.202667 
M928.020325,481.422302 
	C886.114685,501.073883 870.627258,549.652527 893.700867,589.858582 
	C917.579102,631.466675 973.440430,637.140808 1004.782959,613.884766 
	C1036.406250,590.420410 1046.178467,548.503784 1029.285400,519.520264 
	C1024.035889,525.085327 1019.985657,530.787598 1022.750244,539.075623 
	C1023.679993,541.862793 1023.819519,544.979553 1023.939697,547.960999 
	C1025.777954,593.563660 981.300842,626.141174 938.356018,610.438904 
	C913.493713,601.348328 898.984802,583.137512 896.520081,556.963440 
	C894.139709,531.684082 904.251587,511.075928 925.972351,497.608978 
	C947.859619,484.038849 970.625977,483.903809 993.169067,496.852997 
	C995.571289,498.232910 997.902649,499.736389 1000.276367,501.188385 
	C1003.416626,498.288055 1006.201599,495.715820 1008.980835,493.148926 
	C993.749878,476.521118 959.254822,467.627960 928.020325,481.422302 
M998.067749,549.559814 
	C1013.065491,526.946777 1028.094604,504.354370 1043.001953,481.681976 
	C1044.205322,479.851868 1044.573364,477.472595 1045.329468,475.348480 
	C1044.698242,474.866058 1044.066895,474.383636 1043.435547,473.901215 
	C1038.970581,477.687744 1034.136597,481.120148 1030.104492,485.321960 
	C1012.341431,503.831757 994.796082,522.550659 977.201599,541.221863 
	C971.054138,547.745422 964.992126,554.349548 958.818848,560.994690 
	C957.770569,560.189026 956.946350,559.643005 956.223083,558.985901 
	C950.428955,553.721680 944.536255,548.558594 938.899353,543.130188 
	C929.553345,534.129883 926.096985,533.505676 914.659302,539.377625 
	C907.773438,542.912720 906.964478,546.958557 912.205017,552.673706 
	C924.364807,565.934998 936.561401,579.163330 948.842285,592.312317 
	C950.861694,594.474426 953.304871,596.274109 955.697083,598.045593 
	C958.359314,600.016968 961.051270,599.784668 963.274658,597.274231 
	C966.909058,593.170410 970.780212,589.215515 973.939148,584.763306 
	C982.031860,573.357483 989.787598,561.712646 998.067749,549.559814 
M947.875427,431.487122 
	C950.798523,430.036224 950.737793,432.083801 950.982605,434.023468 
	C951.192932,435.690002 951.679077,437.321686 952.043213,438.968781 
	C952.604431,438.992462 953.165649,439.016113 953.726929,439.039764 
	C953.833618,433.548859 953.646118,427.908691 960.092896,425.402435 
	C957.080872,425.120026 952.527466,424.532318 952.111633,425.582733 
	C950.137939,430.567902 945.800049,429.466675 941.773132,430.433624 
	C942.340027,433.663910 942.874207,436.707611 943.408386,439.751343 
	C943.949463,439.743683 944.490479,439.735992 945.031555,439.728333 
	C945.195618,438.657928 945.257507,437.558929 945.547424,436.523804 
	C945.987183,434.953461 946.585388,433.427490 947.875427,431.487122 
M912.298096,439.146149 
	C911.530273,437.716431 910.762451,436.286713 910.259216,435.349670 
	C908.395081,437.750732 906.226929,439.465759 905.637207,441.614105 
	C905.077454,443.653168 905.669556,446.430695 906.745056,448.319855 
	C907.291016,449.278717 910.055664,449.343658 911.746887,449.160767 
	C913.032288,449.021790 914.206421,447.853851 915.739563,446.964081 
	C914.715271,444.583282 913.684692,442.188049 912.298096,439.146149 
M1023.059814,443.563904 
	C1022.491272,441.807831 1021.922668,440.051727 1021.293884,438.109711 
	C1016.718384,442.949280 1014.471863,448.357727 1015.930298,451.146759 
	C1017.663025,449.080841 1019.347229,447.072784 1021.031372,445.064758 
	C1021.487427,445.360931 1021.943420,445.657135 1022.399414,445.953308 
	C1021.745605,448.551361 1021.091858,451.149445 1020.438049,453.747498 
	C1021.033264,453.869415 1021.628418,453.991333 1022.223633,454.113251 
	C1023.035217,450.766449 1028.521240,448.469513 1023.059814,443.563904 
M973.943237,433.099548 
	C973.295044,434.559631 972.646790,436.019714 971.998535,437.479767 
	C974.579407,438.183716 977.160339,438.887634 981.135254,439.971771 
	C980.430054,435.676727 980.382385,432.596710 979.247681,429.989807 
	C978.850952,429.078400 975.776733,429.332489 973.925232,429.054321 
	C973.854065,429.554657 973.782898,430.054993 973.711731,430.555328 
	C974.378418,430.747223 975.047913,430.929840 975.710938,431.133484 
	C976.408020,431.347595 977.098938,431.581848 977.792542,431.807281 
	C977.776062,432.078430 977.759583,432.349609 977.743042,432.620789 
	C976.715027,432.743347 975.686951,432.865906 973.943237,433.099548 
M996.044861,441.097351 
	C995.071533,440.661377 994.098206,440.225372 993.124878,439.789398 
	C993.257812,439.422211 993.390686,439.054993 993.523621,438.687775 
	C995.244690,438.918549 996.965820,439.149323 1000.307190,439.597382 
	C998.972839,436.866852 998.521606,434.234192 997.126648,433.562958 
	C995.692078,432.872681 992.458374,433.461212 991.604492,434.641846 
	C990.517456,436.144989 990.156799,439.388031 991.100159,440.802124 
	C992.035767,442.204529 994.979736,442.267151 997.042847,442.917389 
	C996.943542,442.340790 996.844238,441.764160 996.044861,441.097351 
M935.533142,441.075653 
	C937.171021,440.585724 938.808838,440.095825 940.446655,439.605896 
	C940.336853,439.168518 940.226990,438.731110 940.117188,438.293732 
	C938.456604,438.293732 936.796021,438.293732 935.135437,438.293732 
	C935.091736,437.989716 935.048096,437.685699 935.004395,437.381683 
	C936.706116,436.722229 938.407776,436.062775 941.527283,434.853851 
	C939.158508,433.115906 937.696899,431.217682 936.139099,431.135101 
	C934.609680,431.054047 932.157654,432.464905 931.566467,433.844727 
	C930.257935,436.899078 931.374512,439.640228 935.533142,441.075653 
M930.225281,442.040802 
	C930.433777,438.295013 928.156128,441.441162 927.236511,440.937683 
	C925.808777,440.156097 923.775085,439.446381 923.313782,438.213898 
	C922.811096,436.870667 923.430298,434.724060 924.283569,433.390381 
	C924.861755,432.486755 926.687988,432.381592 929.112122,431.497833 
	C927.252625,430.745850 926.341858,430.054596 925.957581,430.276184 
	C923.922302,431.449890 920.778442,432.554230 920.370300,434.248932 
	C919.802734,436.605682 920.708435,439.857819 922.094727,442.011383 
	C923.940063,444.878052 927.026550,443.985626 930.225281,442.040802 
M1009.131470,445.329376 
	C1007.047791,439.513214 1008.964050,437.791595 1017.619385,438.883728 
	C1015.031128,435.795258 1012.738953,434.330597 1009.630066,435.777313 
	C1006.050720,437.442963 1004.437439,440.714600 1005.478516,444.428864 
	C1006.414612,447.768433 1009.121216,449.114044 1014.052979,447.757111 
	C1011.867493,446.745422 1010.807434,446.254700 1009.131470,445.329376 
M861.023071,475.378845 
	C861.236938,474.125336 861.450745,472.871796 861.664612,471.618286 
	C861.257996,471.444244 860.851379,471.270233 860.444763,471.096191 
	C858.498657,473.538666 856.552551,475.981171 854.606506,478.423645 
	C854.880310,478.755005 855.154175,479.086365 855.428040,479.417725 
	C861.119324,475.610504 862.783569,483.122375 868.137573,482.319794 
	C865.903748,480.199158 863.669922,478.078552 861.023071,475.378845 
M967.192993,436.089691 
	C966.620728,435.062195 965.350891,433.373810 965.593201,433.118134 
	C966.848999,431.792847 968.490845,430.833374 969.998230,429.746429 
	C967.934204,428.886383 965.002502,428.536987 964.238037,429.661194 
	C963.059509,431.394348 962.753418,434.295410 963.293701,436.386810 
	C963.575317,437.476807 966.425720,438.010559 968.196411,438.509583 
	C968.515747,438.599548 969.227234,437.297913 969.757690,436.638794 
	C969.183472,436.476715 968.609253,436.314636 967.192993,436.089691 
M987.533264,440.875122 
	C987.159302,437.669983 983.803894,433.772797 989.172119,432.459076 
	C988.202820,431.217194 987.256104,430.004272 986.325439,428.811951 
	C981.746704,432.627228 982.095215,439.216461 987.533264,440.875122 
z"/>
<path fill="#E9F6EC" opacity="1.000000" stroke="none" 
	d="
M1079.228760,507.108124 
	C1079.251099,498.269806 1079.609009,489.209717 1080.205200,480.165314 
	C1080.289185,478.892639 1081.339478,477.511230 1082.284180,476.499054 
	C1085.576538,472.971497 1084.265015,469.415955 1082.010010,465.872925 
	C1080.810059,479.595947 1080.225342,493.243652 1079.228760,507.108124 
z"/>
<path fill="#E9F6EC" opacity="1.000000" stroke="none" 
	d="
M840.359985,430.203430 
	C840.864197,440.899658 840.955505,451.508118 841.075073,462.589111 
	C840.811523,462.938202 840.269226,462.825134 840.263550,462.689667 
	C839.822388,452.121857 839.415955,441.552521 839.061096,430.981506 
	C839.051758,430.703094 839.638367,430.404724 840.359985,430.203430 
z"/>
<path fill="#F4F7FA" opacity="1.000000" stroke="none" 
	d="
M1082.357178,455.961792 
	C1081.892334,453.515411 1081.783569,450.863708 1081.784424,448.212097 
	C1081.785522,444.590454 1081.580322,440.935547 1081.991089,437.355469 
	C1082.523560,432.716156 1081.887939,429.079315 1076.586060,427.914398 
	C1083.013550,427.954865 1083.047119,427.955078 1083.006348,434.423981 
	C1082.961426,441.535065 1082.846558,448.645721 1082.357178,455.961792 
z"/>
<path fill="#F4F7FA" opacity="1.000000" stroke="none" 
	d="
M928.368286,481.268372 
	C959.254822,467.627960 993.749878,476.521118 1008.980835,493.148926 
	C1006.201599,495.715820 1003.416626,498.288055 1000.276367,501.188385 
	C997.902649,499.736389 995.571289,498.232910 993.169067,496.852997 
	C970.625977,483.903809 947.859619,484.038849 925.972351,497.608978 
	C904.251587,511.075928 894.139709,531.684082 896.520081,556.963440 
	C898.984802,583.137512 913.493713,601.348328 938.356018,610.438904 
	C981.300842,626.141174 1025.777954,593.563660 1023.939697,547.960999 
	C1023.819519,544.979553 1023.679993,541.862793 1022.750244,539.075623 
	C1019.985657,530.787598 1024.035889,525.085327 1029.285400,519.520264 
	C1046.178467,548.503784 1036.406250,590.420410 1004.782959,613.884766 
	C973.440430,637.140808 917.579102,631.466675 893.700867,589.858582 
	C870.627258,549.652527 886.114685,501.073883 928.368286,481.268372 
z"/>
<path fill="#F4F7FA" opacity="1.000000" stroke="none" 
	d="
M997.872925,549.861572 
	C989.787598,561.712646 982.031860,573.357483 973.939148,584.763306 
	C970.780212,589.215515 966.909058,593.170410 963.274658,597.274231 
	C961.051270,599.784668 958.359314,600.016968 955.697083,598.045593 
	C953.304871,596.274109 950.861694,594.474426 948.842285,592.312317 
	C936.561401,579.163330 924.364807,565.934998 912.205017,552.673706 
	C906.964478,546.958557 907.773438,542.912720 914.659302,539.377625 
	C926.096985,533.505676 929.553345,534.129883 938.899353,543.130188 
	C944.536255,548.558594 950.428955,553.721680 956.223083,558.985901 
	C956.946350,559.643005 957.770569,560.189026 958.818848,560.994690 
	C964.992126,554.349548 971.054138,547.745422 977.201599,541.221863 
	C994.796082,522.550659 1012.341431,503.831757 1030.104492,485.321960 
	C1034.136597,481.120148 1038.970581,477.687744 1043.435547,473.901215 
	C1044.066895,474.383636 1044.698242,474.866058 1045.329468,475.348480 
	C1044.573364,477.472595 1044.205322,479.851868 1043.001953,481.681976 
	C1028.094604,504.354370 1013.065491,526.946777 997.872925,549.861572 
z"/>
<path fill="#E9F6EC" opacity="1.000000" stroke="none" 
	d="
M1039.827271,463.854279 
	C1035.942017,465.312073 1033.844971,463.705719 1033.918945,459.412628 
	C1033.935913,458.422668 1033.650757,457.427521 1033.504639,456.434784 
	C1032.801147,456.990295 1032.172363,457.730072 1031.374634,458.052704 
	C1030.462524,458.421631 1028.807861,458.883850 1028.505859,458.498444 
	C1027.195435,456.826141 1025.072388,454.518982 1025.483521,453.084137 
	C1026.023804,451.198639 1028.589844,448.852722 1030.430786,448.718994 
	C1031.836060,448.616913 1033.558105,451.574890 1034.942261,453.327332 
	C1035.324219,453.810944 1035.000366,454.852051 1035.000366,455.712372 
	C1040.840088,454.328339 1041.309692,454.489685 1043.188721,457.804321 
	C1041.231689,458.384277 1039.132446,459.006348 1037.033203,459.628418 
	C1037.797241,460.871338 1038.561279,462.114258 1039.563965,463.639648 
	C1039.802612,463.922150 1039.827271,463.854279 1039.827271,463.854279 
M1028.827759,454.078674 
	C1029.442627,455.182343 1030.057617,456.286011 1030.672607,457.389679 
	C1031.133545,457.056396 1031.594482,456.723114 1032.055420,456.389801 
	C1031.255005,455.672485 1030.454468,454.955139 1028.827759,454.078674 
z"/>
<path fill="#E9F6EC" opacity="1.000000" stroke="none" 
	d="
M947.495850,431.684906 
	C946.585388,433.427490 945.987183,434.953461 945.547424,436.523804 
	C945.257507,437.558929 945.195618,438.657928 945.031555,439.728333 
	C944.490479,439.735992 943.949463,439.743683 943.408386,439.751343 
	C942.874207,436.707611 942.340027,433.663910 941.773132,430.433624 
	C945.800049,429.466675 950.137939,430.567902 952.111633,425.582733 
	C952.527466,424.532318 957.080872,425.120026 960.092896,425.402435 
	C953.646118,427.908691 953.833618,433.548859 953.726929,439.039764 
	C953.165649,439.016113 952.604431,438.992462 952.043213,438.968781 
	C951.679077,437.321686 951.192932,435.690002 950.982605,434.023468 
	C950.737793,432.083801 950.798523,430.036224 947.495850,431.684906 
M954.129456,427.622437 
	C954.316772,427.704742 954.504150,427.787048 954.691467,427.869385 
	C954.645203,427.671906 954.598877,427.474457 954.129456,427.622437 
M956.914917,426.510773 
	C956.692505,426.501434 956.470093,426.492096 956.247681,426.482758 
	C956.354004,426.600800 956.460327,426.718842 956.914917,426.510773 
z"/>
<path fill="#E9F6EC" opacity="1.000000" stroke="none" 
	d="
M879.923035,459.984955 
	C880.922119,462.129364 881.921265,464.273804 882.977661,466.541107 
	C877.823975,471.830688 877.823975,471.830688 870.822083,466.863586 
	C866.710876,470.998352 872.660278,473.864777 872.946472,477.445190 
	C872.521912,477.670044 872.097290,477.894897 871.672729,478.119751 
	C869.460266,476.059662 867.247803,473.999573 864.688904,471.616913 
	C867.289246,469.189728 869.679688,466.958435 872.576782,464.254242 
	C874.010620,465.376709 876.042236,466.967133 878.073792,468.557526 
	C878.554138,468.209442 879.034485,467.861389 879.514832,467.513306 
	C878.246948,465.188660 876.979065,462.864014 875.163513,459.535187 
	C877.345215,460.131012 878.572754,460.466248 879.880127,460.406555 
	C879.959839,460.011597 879.923035,459.984955 879.923035,459.984955 
z"/>
<path fill="#E9F6EC" opacity="1.000000" stroke="none" 
	d="
M912.476135,439.469482 
	C913.684692,442.188049 914.715271,444.583282 915.739563,446.964081 
	C914.206421,447.853851 913.032288,449.021790 911.746887,449.160767 
	C910.055664,449.343658 907.291016,449.278717 906.745056,448.319855 
	C905.669556,446.430695 905.077454,443.653168 905.637207,441.614105 
	C906.226929,439.465759 908.395081,437.750732 910.259216,435.349670 
	C910.762451,436.286713 911.530273,437.716431 912.476135,439.469482 
z"/>
<path fill="#E9F6EC" opacity="1.000000" stroke="none" 
	d="
M1023.386353,443.712189 
	C1028.521240,448.469513 1023.035217,450.766449 1022.223633,454.113251 
	C1021.628418,453.991333 1021.033264,453.869415 1020.438049,453.747498 
	C1021.091858,451.149445 1021.745605,448.551361 1022.399414,445.953308 
	C1021.943420,445.657135 1021.487427,445.360931 1021.031372,445.064758 
	C1019.347229,447.072784 1017.663025,449.080841 1015.930298,451.146759 
	C1014.471863,448.357727 1016.718384,442.949280 1021.293884,438.109711 
	C1021.922668,440.051727 1022.491272,441.807831 1023.386353,443.712189 
z"/>
<path fill="#E9F6EC" opacity="1.000000" stroke="none" 
	d="
M974.301086,433.044006 
	C975.686951,432.865906 976.715027,432.743347 977.743042,432.620789 
	C977.759583,432.349609 977.776062,432.078430 977.792542,431.807281 
	C977.098938,431.581848 976.408020,431.347595 975.710938,431.133484 
	C975.047913,430.929840 974.378418,430.747223 973.711731,430.555328 
	C973.782898,430.054993 973.854065,429.554657 973.925232,429.054321 
	C975.776733,429.332489 978.850952,429.078400 979.247681,429.989807 
	C980.382385,432.596710 980.430054,435.676727 981.135254,439.971771 
	C977.160339,438.887634 974.579407,438.183716 971.998535,437.479767 
	C972.646790,436.019714 973.295044,434.559631 974.301086,433.044006 
z"/>
<path fill="#E9F6EC" opacity="1.000000" stroke="none" 
	d="
M897.029663,455.009613 
	C896.802002,454.123169 896.754761,453.132690 896.314453,452.368835 
	C894.687927,449.547272 894.467041,446.959900 897.552856,445.082825 
	C900.479553,443.302612 902.511658,444.613525 904.164856,447.529175 
	C902.603577,448.757019 901.129089,449.916656 899.654602,451.076294 
	C899.792725,451.394775 899.930847,451.713257 900.068970,452.031738 
	C901.674133,451.523499 903.279358,451.015259 904.984558,450.475342 
	C903.480835,454.391846 902.735291,454.738678 897.180664,454.554474 
	C896.950134,454.934967 897.029663,455.009613 897.029663,455.009613 
z"/>
<path fill="#E9F6EC" opacity="1.000000" stroke="none" 
	d="
M996.394897,441.142456 
	C996.844238,441.764160 996.943542,442.340790 997.042847,442.917389 
	C994.979736,442.267151 992.035767,442.204529 991.100159,440.802124 
	C990.156799,439.388031 990.517456,436.144989 991.604492,434.641846 
	C992.458374,433.461212 995.692078,432.872681 997.126648,433.562958 
	C998.521606,434.234192 998.972839,436.866852 1000.307190,439.597382 
	C996.965820,439.149323 995.244690,438.918549 993.523621,438.687775 
	C993.390686,439.054993 993.257812,439.422211 993.124878,439.789398 
	C994.098206,440.225372 995.071533,440.661377 996.394897,441.142456 
z"/>
<path fill="#E9F6EC" opacity="1.000000" stroke="none" 
	d="
M1039.766602,463.925140 
	C1040.922485,463.417542 1042.437744,463.205688 1043.240723,462.335999 
	C1045.079590,460.344116 1046.570679,458.031250 1048.203125,455.848816 
	C1048.924072,456.450317 1049.645020,457.051819 1050.365845,457.653351 
	C1049.232056,459.510284 1048.098267,461.367249 1046.747437,463.579712 
	C1048.618164,463.858276 1050.476807,464.135040 1052.335449,464.411804 
	C1047.673218,465.442352 1046.795288,468.657104 1045.790161,472.582397 
	C1045.312134,470.763611 1044.834106,468.944855 1044.284302,466.852875 
	C1041.926025,467.960205 1039.146118,469.020599 1040.270142,464.028473 
	C1039.827271,463.854279 1039.802612,463.922150 1039.766602,463.925140 
z"/>
<path fill="#E9F6EC" opacity="1.000000" stroke="none" 
	d="
M935.147766,441.032410 
	C931.374512,439.640228 930.257935,436.899078 931.566467,433.844727 
	C932.157654,432.464905 934.609680,431.054047 936.139099,431.135101 
	C937.696899,431.217682 939.158508,433.115906 941.527283,434.853851 
	C938.407776,436.062775 936.706116,436.722229 935.004395,437.381683 
	C935.048096,437.685699 935.091736,437.989716 935.135437,438.293732 
	C936.796021,438.293732 938.456604,438.293732 940.117188,438.293732 
	C940.226990,438.731110 940.336853,439.168518 940.446655,439.605896 
	C938.808838,440.095825 937.171021,440.585724 935.147766,441.032410 
z"/>
<path fill="#E9F6EC" opacity="1.000000" stroke="none" 
	d="
M1057.865967,476.846069 
	C1055.988525,475.800049 1054.111084,474.754028 1051.089355,473.070526 
	C1052.479980,475.573914 1053.328247,477.100891 1054.509766,479.227936 
	C1050.345215,478.222412 1048.331299,476.114655 1049.426025,472.537018 
	C1050.309692,469.649384 1052.820435,467.722076 1056.025635,468.984589 
	C1059.462280,470.338226 1060.108765,473.028778 1057.943848,476.557373 
	C1057.844238,476.910553 1057.865967,476.846039 1057.865967,476.846069 
z"/>
<path fill="#E9F6EC" opacity="1.000000" stroke="none" 
	d="
M929.963257,442.292206 
	C927.026550,443.985626 923.940063,444.878052 922.094727,442.011383 
	C920.708435,439.857819 919.802734,436.605682 920.370300,434.248932 
	C920.778442,432.554230 923.922302,431.449890 925.957581,430.276184 
	C926.341858,430.054596 927.252625,430.745850 929.112122,431.497833 
	C926.687988,432.381592 924.861755,432.486755 924.283569,433.390381 
	C923.430298,434.724060 922.811096,436.870667 923.313782,438.213898 
	C923.775085,439.446381 925.808777,440.156097 927.236511,440.937683 
	C928.156128,441.441162 930.433777,438.295013 929.963257,442.292206 
z"/>
<path fill="#E9F6EC" opacity="1.000000" stroke="none" 
	d="
M1009.439453,445.546692 
	C1010.807434,446.254700 1011.867493,446.745422 1014.052979,447.757111 
	C1009.121216,449.114044 1006.414612,447.768433 1005.478516,444.428864 
	C1004.437439,440.714600 1006.050720,437.442963 1009.630066,435.777313 
	C1012.738953,434.330597 1015.031128,435.795258 1017.619385,438.883728 
	C1008.964050,437.791595 1007.047791,439.513214 1009.439453,445.546692 
z"/>
<path fill="#E9F6EC" opacity="1.000000" stroke="none" 
	d="
M879.972412,460.030212 
	C880.103149,456.631165 881.264893,454.125671 885.883728,453.784912 
	C885.122925,455.214233 884.619202,456.160645 884.665710,456.073334 
	C886.640686,457.608307 888.308716,458.904694 889.976685,460.201080 
	C888.448242,461.846497 886.919800,463.491913 885.391357,465.137299 
	C884.710449,464.454132 884.029541,463.770966 883.348633,463.087799 
	C884.908936,462.650238 886.469177,462.212677 888.029480,461.775116 
	C887.615967,461.369263 887.202515,460.963379 886.789001,460.557495 
	C884.734375,460.279083 882.679688,460.000641 880.274048,459.853577 
	C879.923035,459.984955 879.959839,460.011597 879.972412,460.030212 
z"/>
<path fill="#E9F6EC" opacity="1.000000" stroke="none" 
	d="
M861.229614,475.668396 
	C863.669922,478.078552 865.903748,480.199158 868.137573,482.319794 
	C862.783569,483.122375 861.119324,475.610504 855.428040,479.417725 
	C855.154175,479.086365 854.880310,478.755005 854.606506,478.423645 
	C856.552551,475.981171 858.498657,473.538666 860.444763,471.096191 
	C860.851379,471.270233 861.257996,471.444244 861.664612,471.618286 
	C861.450745,472.871796 861.236938,474.125336 861.229614,475.668396 
z"/>
<path fill="#E9F6EC" opacity="1.000000" stroke="none" 
	d="
M967.614014,436.121124 
	C968.609253,436.314636 969.183472,436.476715 969.757690,436.638794 
	C969.227234,437.297913 968.515747,438.599548 968.196411,438.509583 
	C966.425720,438.010559 963.575317,437.476807 963.293701,436.386810 
	C962.753418,434.295410 963.059509,431.394348 964.238037,429.661194 
	C965.002502,428.536987 967.934204,428.886383 969.998230,429.746429 
	C968.490845,430.833374 966.848999,431.792847 965.593201,433.118134 
	C965.350891,433.373810 966.620728,435.062195 967.614014,436.121124 
z"/>
<path fill="#E9F6EC" opacity="1.000000" stroke="none" 
	d="
M896.912109,454.895935 
	C896.069641,456.067596 895.491821,457.652527 894.366821,458.333618 
	C893.791443,458.682007 891.723206,457.702759 891.221008,456.817810 
	C889.789612,454.295380 885.772949,452.763000 887.675842,448.704590 
	C889.352478,448.815857 890.902283,448.918701 892.466492,449.022491 
	C891.009888,453.434784 892.383728,455.524048 896.697815,455.018066 
	C897.029663,455.009613 896.950134,454.934967 896.912109,454.895935 
z"/>
<path fill="#E9F6EC" opacity="1.000000" stroke="none" 
	d="
M987.183411,440.928833 
	C982.095215,439.216461 981.746704,432.627228 986.325439,428.811951 
	C987.256104,430.004272 988.202820,431.217194 989.172119,432.459076 
	C983.803894,433.772797 987.159302,437.669983 987.183411,440.928833 
z"/>
<path fill="#E9F6EC" opacity="1.000000" stroke="none" 
	d="
M1057.810547,476.915253 
	C1059.289551,476.748047 1060.802368,476.576172 1062.635376,476.367889 
	C1063.591675,477.448639 1064.829102,478.847107 1065.911499,480.070312 
	C1062.230713,480.978302 1058.791748,481.826569 1054.422485,482.904358 
	C1056.289429,480.417938 1057.509888,478.792480 1058.298096,477.006531 
	C1057.865967,476.846039 1057.844238,476.910553 1057.810547,476.915253 
z"/>
<path fill="#52B769" opacity="1.000000" stroke="none" 
	d="
M1029.240967,454.158234 
	C1030.454468,454.955139 1031.255005,455.672485 1032.055420,456.389801 
	C1031.594482,456.723114 1031.133545,457.056396 1030.672607,457.389679 
	C1030.057617,456.286011 1029.442627,455.182343 1029.240967,454.158234 
z"/>
<path fill="#52B769" opacity="1.000000" stroke="none" 
	d="
M954.341064,427.449707 
	C954.598877,427.474457 954.645203,427.671906 954.691467,427.869385 
	C954.504150,427.787048 954.316772,427.704742 954.341064,427.449707 
z"/>
<path fill="#52B769" opacity="1.000000" stroke="none" 
	d="
M956.740784,426.673828 
	C956.460327,426.718842 956.354004,426.600800 956.247681,426.482758 
	C956.470093,426.492096 956.692505,426.501434 956.740784,426.673828 
z"/>
</svg>